<svg xmlns="http://www.w3.org/2000/svg" width="512" height="512" viewBox="0 0 512 512"><path d="M79.21 433.534c0 35.977 29.373 65.257 65.466 65.257 30.843 0 57.797-21.85 64.08-51.944l19.333-84.833c3.427-16.32 10.285-28.142 26.985-28.142 16.972 0 23.79 12.066 27 28.712l17.987 82.04c6.037 31.395 33.7 54.17 65.766 54.17 36.908 0 66.963-29.932 66.963-66.75v-245.03C424.76 85.907 344.84 10.764 256.137 13.268 160.19 15.975 80.89 97.307 79.21 187.01z" fill="#fff"/><path d="M350.195 176.522c0 53.175-43.326 96.28-96.768 96.28-53.444 0-96.768-43.108-96.768-96.28 0-53.175 43.323-96.284 96.767-96.284 53.444 0 96.768 43.11 96.768 96.284zM79.21 433.534c0 35.977 29.373 65.257 65.466 65.257 30.843 0 57.797-21.85 64.08-51.944l19.333-84.833c3.427-16.32 10.285-28.142 26.985-28.142 16.972 0 23.79 12.066 27 28.712l17.987 82.04c6.037 31.395 33.7 54.17 65.766 54.17 36.908 0 66.963-29.932 66.963-66.75v-245.03C424.76 85.907 344.84 10.764 256.137 13.268 160.19 15.975 80.89 97.307 79.21 187.01z" fill="none"/><path d="M303.848 138.406c0 15.392-12.542 27.87-28.01 27.87-15.472 0-28.013-12.478-28.013-27.87 0-15.393 12.54-27.872 28.012-27.872 15.47 0 28.01 12.48 28.01 27.872z" fill="#333"/><path d="M260.3 13.21c-1.382 0-2.785.026-4.17.065C160.18 15.982 80.89 97.32 79.21 187.025v246.498c0 35.977 29.384 65.275 65.476 65.275 30.844 0 57.794-21.847 64.077-51.94l19.322-84.85c3.428-16.32 10.293-28.123 26.993-28.123 16.973 0 23.784 12.048 26.994 28.694l17.985 82.028c6.037 31.395 33.697 54.19 65.764 54.19 14.382 0 25.68-4.563 36.607-12.288V98.66C370.733 46.604 318.674 13.153 260.3 13.21zm-6.877 67.018c53.444 0 96.768 43.107 96.768 96.282s-43.325 96.28-96.767 96.28c-53.444 0-96.768-43.108-96.768-96.28 0-53.175 43.324-96.282 96.768-96.282z" fill="#64c4d4"/><path d="M260.3 13.21c-1.382 0-2.785.026-4.17.065h-.35V80.26c52.36 1.237 94.41 43.853 94.41 96.25s-42.05 95.013-94.41 96.25v61.125c16.453.333 23.127 12.282 26.292 28.695l17.985 82.03c6.037 31.394 33.697 54.19 65.764 54.19 14.84 0 26.54-4.836 37.658-13.018v-385.38c-31.54-53.057-84.154-87.25-143.18-87.19z" fill="#dfe0e1"/><path d="M350.195 176.522c0 53.175-43.326 96.28-96.768 96.28-53.444 0-96.768-43.108-96.768-96.28 0-53.175 43.323-96.284 96.767-96.284 53.444 0 96.768 43.11 96.768 96.284zM79.21 433.534c0 35.977 29.373 65.257 65.466 65.257 30.843 0 57.797-21.85 64.08-51.944l19.333-84.833c3.427-16.32 10.285-28.142 26.985-28.142 16.972 0 23.79 12.066 27 28.712l17.987 82.04c6.037 31.395 33.7 54.17 65.766 54.17 36.908 0 66.963-29.932 66.963-66.75v-245.03C424.76 85.907 344.84 10.764 256.137 13.268 160.19 15.975 80.89 97.307 79.21 187.01z" fill="none" stroke="#333" stroke-width="26"/></svg>