<svg xmlns="http://www.w3.org/2000/svg" width="512" height="512" viewBox="0 0 512 512"><path d="M79.21 433.534c0 35.977 29.373 65.257 65.466 65.257 30.843 0 57.797-21.85 64.08-51.944l19.333-84.833c3.427-16.32 10.285-28.142 26.985-28.142 16.972 0 23.79 12.066 27 28.712l17.987 82.04c6.037 31.395 33.7 54.17 65.766 54.17 36.908 0 66.963-29.932 66.963-66.75v-245.03C424.76 85.907 344.84 10.764 256.137 13.268 160.19 15.975 80.89 97.307 79.21 187.01z" fill="#fff"/><path d="M350.195 176.522c0 53.175-43.326 96.28-96.768 96.28-53.444 0-96.768-43.108-96.768-96.28 0-53.175 43.323-96.284 96.767-96.284 53.444 0 96.768 43.11 96.768 96.284zM79.21 433.534c0 35.977 29.373 65.257 65.466 65.257 30.843 0 57.797-21.85 64.08-51.944l19.333-84.833c3.427-16.32 10.285-28.142 26.985-28.142 16.972 0 23.79 12.066 27 28.712l17.987 82.04c6.037 31.395 33.7 54.17 65.766 54.17 36.908 0 66.963-29.932 66.963-66.75v-245.03C424.76 85.907 344.84 10.764 256.137 13.268 160.19 15.975 80.89 97.307 79.21 187.01z" fill="#4e4e4e" stroke="#4e4e4e" stroke-width="26"/><path d="M303.848 138.406c0 15.392-12.542 27.87-28.01 27.87-15.472 0-28.013-12.478-28.013-27.87 0-15.393 12.54-27.872 28.012-27.872 15.47 0 28.01 12.48 28.01 27.872z" fill="#4e4e4e"/></svg>