<?xml version="1.0" encoding="utf-8"?><svg width="3970" height="3072" viewBox="0 0 3970 3072" xmlns="http://www.w3.org/2000/svg" xmlns:xlink="http://www.w3.org/1999/xlink"><view id="flat-mascot" viewBox="2560 2048 512 512"/><svg width="512" height="512" viewBox="0 0 512 512" x="2560" y="2048"><path d="M79.21 433.534c0 35.977 29.373 65.257 65.466 65.257 30.843 0 57.797-21.85 64.08-51.943l19.333-84.833c3.426-16.32 10.284-28.142 26.984-28.142 16.972 0 23.79 12.066 27 28.712l17.987 82.04c6.038 31.395 33.7 54.17 65.767 54.17 36.908 0 66.963-29.932 66.963-66.75v-245.03c-8.03-101.107-87.95-176.25-176.653-173.746C160.19 15.975 80.89 97.308 79.21 187.01z" fill="none"/><path d="M350.195 176.522c0 53.175-43.326 96.28-96.768 96.28-53.444 0-96.768-43.108-96.768-96.28 0-53.175 43.322-96.284 96.766-96.284s96.768 43.11 96.768 96.284zM79.21 433.534c0 35.977 29.373 65.257 65.466 65.257 30.843 0 57.797-21.85 64.08-51.943l19.333-84.833c3.426-16.32 10.284-28.142 26.984-28.142 16.972 0 23.79 12.066 27 28.712l17.987 82.04c6.038 31.395 33.7 54.17 65.767 54.17 36.908 0 66.963-29.932 66.963-66.75v-245.03c-8.03-101.107-87.95-176.25-176.653-173.746C160.19 15.975 80.89 97.308 79.21 187.01z" fill="#64c4d4" stroke="#64c4d4" stroke-width="26"/><path d="M303.848 138.406c0 15.392-12.542 27.87-28.01 27.87-15.472 0-28.013-12.478-28.013-27.87 0-15.393 12.54-27.872 28.012-27.872 15.47 0 28.01 12.48 28.01 27.872z" fill="#a3abac"/></svg><view id="flat-text" viewBox="1985 512 1985 512"/><svg width="1985" height="512" viewBox="0 0 1985 512" x="1985" y="512"><path d="M13.21 433.534c0 35.977 29.373 65.257 65.466 65.257 30.843 0 57.797-21.85 64.08-51.943l19.333-84.833c3.426-16.32 10.284-28.142 26.984-28.142 16.972 0 23.79 12.066 27 28.712l17.987 82.04c6.038 31.395 33.7 54.17 65.767 54.17 36.908 0 66.963-29.932 66.963-66.75v-245.03c-8.03-101.107-87.95-176.25-176.653-173.746C94.19 15.975 14.89 97.308 13.21 187.01z" fill="none"/><path d="M284.195 176.522c0 53.175-43.326 96.28-96.768 96.28-53.444 0-96.768-43.108-96.768-96.28 0-53.175 43.322-96.284 96.766-96.284s96.768 43.11 96.768 96.284zM13.21 433.534c0 35.977 29.373 65.257 65.466 65.257 30.843 0 57.797-21.85 64.08-51.943l19.333-84.833c3.426-16.32 10.284-28.142 26.984-28.142 16.972 0 23.79 12.066 27 28.712l17.987 82.04c6.038 31.395 33.7 54.17 65.767 54.17 36.908 0 66.963-29.932 66.963-66.75v-245.03c-8.03-101.107-87.95-176.25-176.653-173.746C94.19 15.975 14.89 97.308 13.21 187.01z" fill="#64c4d4" stroke="#64c4d4" stroke-width="26"/><path d="M237.848 138.406c0 15.392-12.542 27.87-28.01 27.87-15.472 0-28.013-12.478-28.013-27.87 0-15.393 12.54-27.872 28.012-27.872 15.47 0 28.01 12.48 28.01 27.872zM544.123 140.52v88.7c16.284-8.5 35.015-13.4 54.87-13.4 63.983 0 115.92 50.23 115.92 112.1s-52.106 112.1-116.09 112.1c-19.854 0-38.416-4.9-54.86-13.4V440h-59.088c-1.97-101.46 0-197.04 0-299.5zm56.66 129.63c-31.264 0-56.66 24.55-56.66 55.15 0 30.44 25.396 55.16 56.66 55.16 31.256 0 56.652-24.55 56.652-55 0-30.44-25.396-55.15-56.65-55.15zm164.762 62.35c0 68.74 52.096 107.53 101.266 107.53 48.845 0 100.94-36 100.94-107.53V219.57l-61.536.66-.815 112.27c-.33 32.74-19.866 47.8-40.388 47.14-19.526-.66-34.18-15.22-34.835-47.14l-2.11-112.93h-62.19zm253.495-112.6h59.256l.657 220.13h-59.437zm109.89-78.9h59.267v299.52h-59.258zm277.426-.48v88.7c-16.284-8.5-35.015-13.4-54.87-13.4-64.142 0-116.088 50.23-116.088 112.1s52.105 112.1 115.928 112.1c19.537 0 38.26-4.9 54.712-13.4V440h59.088c1.632-101.46 0-197.04 0-299.5zm-56.66 129.63c31.264 0 56.66 24.55 56.66 55.15 0 30.44-25.396 55.16-56.66 55.16-31.256 0-56.652-24.55-56.652-55 0-30.44 25.406-55.15 56.66-55.15z" fill="#a3abac"/><path d="M1589.67 404.02c0 19.64-15.787 35.68-35.484 35.68-19.536 0-35.492-16.04-35.492-35.68s15.787-35.67 35.493-35.67c19.537 0 35.492 15.87 35.492 35.67z" fill="#64c4d4"/><path d="M1641.446 219.9h59.268v220.46h-59.268zm226.634-4.1c-63.99 0-115.59 50.25-115.59 112.12 0 61.87 51.6 112.1 115.59 112.1 63.984 0 115.92-50.23 115.92-112.1s-52.095-112.1-115.91-112.1zm0 56.8c31.257 0 56.653 24.55 56.653 55.16 0 30.27-25.396 55-56.652 55-31.263 0-56.66-24.56-56.66-55.17 0-30.6 25.397-55.33 56.66-55.33z" fill="#a3abac"/></svg><view id="lite-mascot" viewBox="512 2048 512 512"/><svg width="512" height="512" viewBox="0 0 512 512" x="512" y="2048"><path d="M79.21 433.534c0 35.977 29.373 65.257 65.466 65.257 30.843 0 57.797-21.85 64.08-51.943l19.333-84.833c3.426-16.32 10.284-28.142 26.984-28.142 16.972 0 23.79 12.066 27 28.712l17.987 82.04c6.038 31.395 33.7 54.17 65.767 54.17 36.908 0 66.963-29.932 66.963-66.75v-245.03c-8.03-101.107-87.95-176.25-176.653-173.746C160.19 15.975 80.89 97.308 79.21 187.01z" fill="none"/><path d="M350.195 176.522c0 53.175-43.326 96.28-96.768 96.28-53.444 0-96.768-43.108-96.768-96.28 0-53.175 43.322-96.284 96.766-96.284s96.768 43.11 96.768 96.284zM79.21 433.534c0 35.977 29.373 65.257 65.466 65.257 30.843 0 57.797-21.85 64.08-51.943l19.333-84.833c3.426-16.32 10.284-28.142 26.984-28.142 16.972 0 23.79 12.066 27 28.712l17.987 82.04c6.038 31.395 33.7 54.17 65.767 54.17 36.908 0 66.963-29.932 66.963-66.75v-245.03c-8.03-101.107-87.95-176.25-176.653-173.746C160.19 15.975 80.89 97.308 79.21 187.01z" fill="#a3abac" stroke="#a3abac" stroke-width="26"/><path d="M303.848 138.406c0 15.392-12.542 27.87-28.01 27.87-15.472 0-28.013-12.478-28.013-27.87 0-15.393 12.54-27.872 28.012-27.872 15.47 0 28.01 12.48 28.01 27.872z" fill="#a3abac"/></svg><view id="lite-text" viewBox="0 512 1985 512"/><svg width="1985" height="512" viewBox="0 0 1985 512" y="512"><path d="M13.21 433.534c0 35.977 29.373 65.257 65.466 65.257 30.843 0 57.797-21.85 64.08-51.943l19.333-84.833c3.426-16.32 10.284-28.142 26.984-28.142 16.972 0 23.79 12.066 27 28.712l17.987 82.04c6.038 31.395 33.7 54.17 65.767 54.17 36.908 0 66.963-29.932 66.963-66.75v-245.03c-8.03-101.107-87.95-176.25-176.653-173.746C94.19 15.975 14.89 97.308 13.21 187.01z" fill="none"/><path d="M284.195 176.522c0 53.175-43.326 96.28-96.768 96.28-53.444 0-96.768-43.108-96.768-96.28 0-53.175 43.322-96.284 96.766-96.284s96.768 43.11 96.768 96.284zM13.21 433.534c0 35.977 29.373 65.257 65.466 65.257 30.843 0 57.797-21.85 64.08-51.943l19.333-84.833c3.426-16.32 10.284-28.142 26.984-28.142 16.972 0 23.79 12.066 27 28.712l17.987 82.04c6.038 31.395 33.7 54.17 65.767 54.17 36.908 0 66.963-29.932 66.963-66.75v-245.03c-8.03-101.107-87.95-176.25-176.653-173.746C94.19 15.975 14.89 97.308 13.21 187.01z" fill="#a3abac" stroke="#a3abac" stroke-width="26"/><path d="M237.848 138.406c0 15.392-12.542 27.87-28.01 27.87-15.472 0-28.013-12.478-28.013-27.87 0-15.393 12.54-27.872 28.012-27.872 15.47 0 28.01 12.48 28.01 27.872zM544.123 140.52v88.7c16.284-8.5 35.015-13.4 54.87-13.4 63.983 0 115.92 50.23 115.92 112.1s-52.106 112.1-116.09 112.1c-19.854 0-38.416-4.9-54.86-13.4V440h-59.088c-1.97-101.46 0-197.04 0-299.5zm56.66 129.63c-31.264 0-56.66 24.55-56.66 55.15 0 30.44 25.396 55.16 56.66 55.16 31.256 0 56.652-24.55 56.652-55 0-30.44-25.396-55.15-56.65-55.15zm164.762 62.35c0 68.74 52.096 107.53 101.266 107.53 48.845 0 100.94-36 100.94-107.53V219.57l-61.536.66-.815 112.27c-.33 32.74-19.866 47.8-40.388 47.14-19.526-.66-34.18-15.22-34.835-47.14l-2.11-112.93h-62.19zm253.495-112.6h59.256l.657 220.13h-59.437zm109.89-78.9h59.267v299.52h-59.258zm277.426-.48v88.7c-16.284-8.5-35.015-13.4-54.87-13.4-64.142 0-116.088 50.23-116.088 112.1s52.105 112.1 115.928 112.1c19.537 0 38.26-4.9 54.712-13.4V440h59.088c1.632-101.46 0-197.04 0-299.5zm-56.66 129.63c31.264 0 56.66 24.55 56.66 55.15 0 30.44-25.396 55.16-56.66 55.16-31.256 0-56.652-24.55-56.652-55 0-30.44 25.406-55.15 56.66-55.15zm239.974 133.87c0 19.64-15.787 35.68-35.484 35.68-19.536 0-35.492-16.04-35.492-35.68s15.787-35.67 35.493-35.67c19.537 0 35.492 15.87 35.492 35.67zm51.776-184.12h59.268v220.46h-59.268zm226.634-4.1c-63.99 0-115.59 50.25-115.59 112.12 0 61.87 51.6 112.1 115.59 112.1 63.984 0 115.92-50.23 115.92-112.1s-52.095-112.1-115.91-112.1zm0 56.8c31.257 0 56.653 24.55 56.653 55.16 0 30.27-25.396 55-56.652 55-31.263 0-56.66-24.56-56.66-55.17 0-30.6 25.397-55.33 56.66-55.33z" fill="#a3abac"/></svg><view id="original-mascot" viewBox="0 2048 512 512"/><svg width="512" height="512" viewBox="0 0 512 512" y="2048"><path d="M79.21 433.534c0 35.977 29.373 65.257 65.466 65.257 30.843 0 57.797-21.85 64.08-51.943l19.333-84.833c3.426-16.32 10.284-28.142 26.984-28.142 16.972 0 23.79 12.066 27 28.712l17.987 82.04c6.038 31.395 33.7 54.17 65.767 54.17 36.908 0 66.963-29.932 66.963-66.75v-245.03c-8.03-101.107-87.95-176.25-176.653-173.746C160.19 15.975 80.89 97.308 79.21 187.01z" fill="#fff"/><path d="M350.195 176.522c0 53.175-43.326 96.28-96.768 96.28-53.444 0-96.768-43.108-96.768-96.28 0-53.175 43.322-96.284 96.766-96.284s96.768 43.11 96.768 96.284zM79.21 433.534c0 35.977 29.373 65.257 65.466 65.257 30.843 0 57.797-21.85 64.08-51.943l19.333-84.833c3.426-16.32 10.284-28.142 26.984-28.142 16.972 0 23.79 12.066 27 28.712l17.987 82.04c6.038 31.395 33.7 54.17 65.767 54.17 36.908 0 66.963-29.932 66.963-66.75v-245.03c-8.03-101.107-87.95-176.25-176.653-173.746C160.19 15.975 80.89 97.308 79.21 187.01z" fill="none"/><path d="M303.848 138.406c0 15.392-12.542 27.87-28.01 27.87-15.472 0-28.013-12.478-28.013-27.87 0-15.393 12.54-27.872 28.012-27.872 15.47 0 28.01 12.48 28.01 27.872z" fill="#333"/><path d="M260.3 13.21c-1.382 0-2.785.026-4.17.065-95.95 2.707-175.24 84.045-176.92 173.75v246.498c0 35.977 29.384 65.275 65.476 65.275 30.844 0 57.794-21.847 64.077-51.94l19.322-84.85c3.428-16.32 10.293-28.123 26.993-28.123 16.973 0 23.784 12.048 26.994 28.694l17.985 82.027c6.037 31.395 33.697 54.19 65.764 54.19 14.383 0 25.68-4.563 36.608-12.288V98.66C370.733 46.604 318.674 13.153 260.3 13.21zm-6.877 67.018c53.444 0 96.768 43.107 96.768 96.282s-43.324 96.28-96.766 96.28c-53.444 0-96.768-43.108-96.768-96.28 0-53.175 43.324-96.282 96.768-96.282z" fill="#64c4d4"/><path d="M260.3 13.21c-1.382 0-2.785.026-4.17.065h-.35V80.26c52.36 1.237 94.41 43.853 94.41 96.25s-42.05 95.013-94.41 96.25v61.125c16.453.333 23.127 12.282 26.292 28.695l17.985 82.03c6.037 31.394 33.697 54.19 65.764 54.19 14.84 0 26.54-4.836 37.66-13.018v-385.38c-31.54-53.057-84.155-87.25-143.18-87.19z" fill="#dfe0e1"/><path d="M350.195 176.522c0 53.175-43.326 96.28-96.768 96.28-53.444 0-96.768-43.108-96.768-96.28 0-53.175 43.322-96.284 96.766-96.284s96.768 43.11 96.768 96.284zM79.21 433.534c0 35.977 29.373 65.257 65.466 65.257 30.843 0 57.797-21.85 64.08-51.943l19.333-84.833c3.426-16.32 10.284-28.142 26.984-28.142 16.972 0 23.79 12.066 27 28.712l17.987 82.04c6.038 31.395 33.7 54.17 65.767 54.17 36.908 0 66.963-29.932 66.963-66.75v-245.03c-8.03-101.107-87.95-176.25-176.653-173.746C160.19 15.975 80.89 97.308 79.21 187.01z" fill="none" stroke="#333" stroke-width="26"/></svg><view id="original-text" viewBox="0 1024 1985 512"/><svg width="1985" height="512" viewBox="0 0 1985 512" y="1024"><path d="M13.21 433.534c0 35.977 29.373 65.257 65.466 65.257 30.843 0 57.797-21.85 64.08-51.943l19.333-84.833c3.426-16.32 10.284-28.142 26.984-28.142 16.972 0 23.79 12.066 27 28.712l17.987 82.04c6.038 31.395 33.7 54.17 65.767 54.17 36.908 0 66.963-29.932 66.963-66.75v-245.03c-8.03-101.107-87.95-176.25-176.653-173.746C94.19 15.975 14.89 97.308 13.21 187.01z" fill="#fff"/><path d="M284.195 176.522c0 53.175-43.326 96.28-96.768 96.28-53.444 0-96.768-43.108-96.768-96.28 0-53.175 43.322-96.284 96.766-96.284s96.768 43.11 96.768 96.284zM13.21 433.534c0 35.977 29.373 65.257 65.466 65.257 30.843 0 57.797-21.85 64.08-51.943l19.333-84.833c3.426-16.32 10.284-28.142 26.984-28.142 16.972 0 23.79 12.066 27 28.712l17.987 82.04c6.038 31.395 33.7 54.17 65.767 54.17 36.908 0 66.963-29.932 66.963-66.75v-245.03c-8.03-101.107-87.95-176.25-176.653-173.746C94.19 15.975 14.89 97.308 13.21 187.01z" fill="none"/><path d="M237.848 138.406c0 15.392-12.542 27.87-28.01 27.87-15.472 0-28.013-12.478-28.013-27.87 0-15.393 12.54-27.872 28.012-27.872 15.47 0 28.01 12.48 28.01 27.872z" fill="#333"/><path d="M194.3 13.21c-1.382 0-2.785.026-4.17.065C94.18 15.982 14.89 97.32 13.21 187.025v246.498c0 35.977 29.384 65.275 65.476 65.275 30.844 0 57.794-21.847 64.077-51.94l19.322-84.85c3.428-16.32 10.293-28.123 26.993-28.123 16.973 0 23.784 12.048 26.994 28.694l17.985 82.027c6.037 31.395 33.697 54.19 65.764 54.19 14.383 0 25.68-4.563 36.608-12.288V98.66C304.733 46.604 252.674 13.153 194.3 13.21zm-6.877 67.018c53.444 0 96.768 43.107 96.768 96.282s-43.324 96.28-96.766 96.28c-53.444 0-96.768-43.108-96.768-96.28 0-53.175 43.324-96.282 96.768-96.282z" fill="#64c4d4"/><path d="M194.3 13.21c-1.382 0-2.785.026-4.17.065h-.35V80.26c52.36 1.237 94.41 43.853 94.41 96.25s-42.05 95.013-94.41 96.25v61.125c16.453.333 23.127 12.282 26.292 28.695l17.985 82.03c6.037 31.394 33.697 54.19 65.764 54.19 14.84 0 26.54-4.836 37.66-13.018v-385.38c-31.54-53.057-84.155-87.25-143.18-87.19z" fill="#dfe0e1"/><path d="M284.195 176.522c0 53.175-43.326 96.28-96.768 96.28-53.444 0-96.768-43.108-96.768-96.28 0-53.175 43.322-96.284 96.766-96.284s96.768 43.11 96.768 96.284zM13.21 433.534c0 35.977 29.373 65.257 65.466 65.257 30.843 0 57.797-21.85 64.08-51.943l19.333-84.833c3.426-16.32 10.284-28.142 26.984-28.142 16.972 0 23.79 12.066 27 28.712l17.987 82.04c6.038 31.395 33.7 54.17 65.767 54.17 36.908 0 66.963-29.932 66.963-66.75v-245.03c-8.03-101.107-87.95-176.25-176.653-173.746C94.19 15.975 14.89 97.308 13.21 187.01z" fill="none" stroke="#333" stroke-width="26"/><path d="M544.123 140.52v88.7c16.284-8.5 35.015-13.4 54.87-13.4 63.983 0 115.92 50.23 115.92 112.1s-52.106 112.1-116.09 112.1c-19.854 0-38.416-4.9-54.86-13.4V440h-59.088c-1.97-101.46 0-197.04 0-299.5zm56.66 129.63c-31.264 0-56.66 24.55-56.66 55.15 0 30.44 25.396 55.16 56.66 55.16 31.256 0 56.652-24.55 56.652-55 0-30.44-25.396-55.15-56.65-55.15zm164.762 62.35c0 68.74 52.096 107.53 101.266 107.53 48.845 0 100.94-36 100.94-107.53V219.57l-61.536.66-.815 112.27c-.33 32.74-19.866 47.8-40.388 47.14-19.526-.66-34.18-15.22-34.835-47.14l-2.11-112.93h-62.19zm253.495-112.6h59.256l.657 220.13h-59.437zm109.89-78.9h59.267v299.52h-59.258zm277.426-.48v88.7c-16.284-8.5-35.015-13.4-54.87-13.4-64.142 0-116.088 50.23-116.088 112.1s52.105 112.1 115.928 112.1c19.537 0 38.26-4.9 54.712-13.4V440h59.088c1.632-101.46 0-197.04 0-299.5zm-56.66 129.63c31.264 0 56.66 24.55 56.66 55.15 0 30.44-25.396 55.16-56.66 55.16-31.256 0-56.652-24.55-56.652-55 0-30.44 25.406-55.15 56.66-55.15zm239.974 133.87c0 19.64-15.787 35.68-35.484 35.68-19.536 0-35.492-16.04-35.492-35.68s15.787-35.67 35.493-35.67c19.537 0 35.492 15.87 35.492 35.67zm51.776-184.12h59.268v220.46h-59.268zm226.634-4.1c-63.99 0-115.59 50.25-115.59 112.12 0 61.87 51.6 112.1 115.59 112.1 63.984 0 115.92-50.23 115.92-112.1s-52.095-112.1-115.91-112.1zm0 56.8c31.257 0 56.653 24.55 56.653 55.16 0 30.27-25.396 55-56.652 55-31.263 0-56.66-24.56-56.66-55.17 0-30.6 25.397-55.33 56.66-55.33z" fill="#333"/></svg><view id="outline-lite-mascot" viewBox="1536 2048 512 512"/><svg width="512" height="512" viewBox="0 0 512 512" x="1536" y="2048"><path d="M79.21 433.534c0 35.977 29.373 65.257 65.466 65.257 30.843 0 57.797-21.85 64.08-51.943l19.333-84.833c3.426-16.32 10.284-28.142 26.984-28.142 16.972 0 23.79 12.066 27 28.712l17.987 82.04c6.038 31.395 33.7 54.17 65.767 54.17 36.908 0 66.963-29.932 66.963-66.75v-245.03c-8.03-101.107-87.95-176.25-176.653-173.746C160.19 15.975 80.89 97.308 79.21 187.01z" fill="none"/><path d="M350.195 176.522c0 53.175-43.326 96.28-96.768 96.28-53.444 0-96.768-43.108-96.768-96.28 0-53.175 43.322-96.284 96.766-96.284s96.768 43.11 96.768 96.284zM79.21 433.534c0 35.977 29.373 65.257 65.466 65.257 30.843 0 57.797-21.85 64.08-51.943l19.333-84.833c3.426-16.32 10.284-28.142 26.984-28.142 16.972 0 23.79 12.066 27 28.712l17.987 82.04c6.038 31.395 33.7 54.17 65.767 54.17 36.908 0 66.963-29.932 66.963-66.75v-245.03c-8.03-101.107-87.95-176.25-176.653-173.746C160.19 15.975 80.89 97.308 79.21 187.01z" fill="none" stroke="#a3abac" stroke-width="26"/><path d="M303.848 138.406c0 15.392-12.542 27.87-28.01 27.87-15.472 0-28.013-12.478-28.013-27.87 0-15.393 12.54-27.872 28.012-27.872 15.47 0 28.01 12.48 28.01 27.872z" fill="#a3abac"/></svg><view id="outline-lite-text" viewBox="1985 0 1985 512"/><svg width="1985" height="512" viewBox="0 0 1985 512" x="1985"><path d="M13.21 433.534c0 35.977 29.373 65.257 65.466 65.257 30.843 0 57.797-21.85 64.08-51.943l19.333-84.833c3.426-16.32 10.284-28.142 26.984-28.142 16.972 0 23.79 12.066 27 28.712l17.987 82.04c6.038 31.395 33.7 54.17 65.767 54.17 36.908 0 66.963-29.932 66.963-66.75v-245.03c-8.03-101.107-87.95-176.25-176.653-173.746C94.19 15.975 14.89 97.308 13.21 187.01z" fill="none"/><path d="M284.195 176.522c0 53.175-43.326 96.28-96.768 96.28-53.444 0-96.768-43.108-96.768-96.28 0-53.175 43.322-96.284 96.766-96.284s96.768 43.11 96.768 96.284zM13.21 433.534c0 35.977 29.373 65.257 65.466 65.257 30.843 0 57.797-21.85 64.08-51.943l19.333-84.833c3.426-16.32 10.284-28.142 26.984-28.142 16.972 0 23.79 12.066 27 28.712l17.987 82.04c6.038 31.395 33.7 54.17 65.767 54.17 36.908 0 66.963-29.932 66.963-66.75v-245.03c-8.03-101.107-87.95-176.25-176.653-173.746C94.19 15.975 14.89 97.308 13.21 187.01z" fill="none" stroke="#a3abac" stroke-width="26"/><path d="M237.848 138.406c0 15.392-12.542 27.87-28.01 27.87-15.472 0-28.013-12.478-28.013-27.87 0-15.393 12.54-27.872 28.012-27.872 15.47 0 28.01 12.48 28.01 27.872zM544.123 140.52v88.7c16.284-8.5 35.015-13.4 54.87-13.4 63.983 0 115.92 50.23 115.92 112.1s-52.106 112.1-116.09 112.1c-19.854 0-38.416-4.9-54.86-13.4V440h-59.088c-1.97-101.46 0-197.04 0-299.5zm56.66 129.63c-31.264 0-56.66 24.55-56.66 55.15 0 30.44 25.396 55.16 56.66 55.16 31.256 0 56.652-24.55 56.652-55 0-30.44-25.396-55.15-56.65-55.15zm164.762 62.35c0 68.74 52.096 107.53 101.266 107.53 48.845 0 100.94-36 100.94-107.53V219.57l-61.536.66-.815 112.27c-.33 32.74-19.866 47.8-40.388 47.14-19.526-.66-34.18-15.22-34.835-47.14l-2.11-112.93h-62.19zm253.495-112.6h59.256l.657 220.13h-59.437zm109.89-78.9h59.267v299.52h-59.258zm277.426-.48v88.7c-16.284-8.5-35.015-13.4-54.87-13.4-64.142 0-116.088 50.23-116.088 112.1s52.105 112.1 115.928 112.1c19.537 0 38.26-4.9 54.712-13.4V440h59.088c1.632-101.46 0-197.04 0-299.5zm-56.66 129.63c31.264 0 56.66 24.55 56.66 55.15 0 30.44-25.396 55.16-56.66 55.16-31.256 0-56.652-24.55-56.652-55 0-30.44 25.406-55.15 56.66-55.15zm239.974 133.87c0 19.64-15.787 35.68-35.484 35.68-19.536 0-35.492-16.04-35.492-35.68s15.787-35.67 35.493-35.67c19.537 0 35.492 15.87 35.492 35.67zm51.776-184.12h59.268v220.46h-59.268zm226.634-4.1c-63.99 0-115.59 50.25-115.59 112.12 0 61.87 51.6 112.1 115.59 112.1 63.984 0 115.92-50.23 115.92-112.1s-52.095-112.1-115.91-112.1zm0 56.8c31.257 0 56.653 24.55 56.653 55.16 0 30.27-25.396 55-56.652 55-31.263 0-56.66-24.56-56.66-55.17 0-30.6 25.397-55.33 56.66-55.33z" fill="#a3abac"/></svg><view id="outline-mascot" viewBox="0 2560 512 512"/><svg width="512" height="512" viewBox="0 0 512 512" y="2560"><path d="M79.21 433.534c0 35.977 29.373 65.257 65.466 65.257 30.843 0 57.797-21.85 64.08-51.943l19.333-84.833c3.426-16.32 10.284-28.142 26.984-28.142 16.972 0 23.79 12.066 27 28.712l17.987 82.04c6.038 31.395 33.7 54.17 65.767 54.17 36.908 0 66.963-29.932 66.963-66.75v-245.03c-8.03-101.107-87.95-176.25-176.653-173.746C160.19 15.975 80.89 97.308 79.21 187.01z" fill="none"/><path d="M350.195 176.522c0 53.175-43.326 96.28-96.768 96.28-53.444 0-96.768-43.108-96.768-96.28 0-53.175 43.322-96.284 96.766-96.284s96.768 43.11 96.768 96.284zM79.21 433.534c0 35.977 29.373 65.257 65.466 65.257 30.843 0 57.797-21.85 64.08-51.943l19.333-84.833c3.426-16.32 10.284-28.142 26.984-28.142 16.972 0 23.79 12.066 27 28.712l17.987 82.04c6.038 31.395 33.7 54.17 65.767 54.17 36.908 0 66.963-29.932 66.963-66.75v-245.03c-8.03-101.107-87.95-176.25-176.653-173.746C160.19 15.975 80.89 97.308 79.21 187.01z" fill="none" stroke="#4e4e4e" stroke-width="26"/><path d="M303.848 138.406c0 15.392-12.542 27.87-28.01 27.87-15.472 0-28.013-12.478-28.013-27.87 0-15.393 12.54-27.872 28.012-27.872 15.47 0 28.01 12.48 28.01 27.872z" fill="#4e4e4e"/></svg><view id="outline-text" viewBox="1985 1024 1985 512"/><svg width="1985" height="512" viewBox="0 0 1985 512" x="1985" y="1024"><path d="M13.21 433.534c0 35.977 29.373 65.257 65.466 65.257 30.843 0 57.797-21.85 64.08-51.943l19.333-84.833c3.426-16.32 10.284-28.142 26.984-28.142 16.972 0 23.79 12.066 27 28.712l17.987 82.04c6.038 31.395 33.7 54.17 65.767 54.17 36.908 0 66.963-29.932 66.963-66.75v-245.03c-8.03-101.107-87.95-176.25-176.653-173.746C94.19 15.975 14.89 97.308 13.21 187.01z" fill="none"/><path d="M284.195 176.522c0 53.175-43.326 96.28-96.768 96.28-53.444 0-96.768-43.108-96.768-96.28 0-53.175 43.322-96.284 96.766-96.284s96.768 43.11 96.768 96.284zM13.21 433.534c0 35.977 29.373 65.257 65.466 65.257 30.843 0 57.797-21.85 64.08-51.943l19.333-84.833c3.426-16.32 10.284-28.142 26.984-28.142 16.972 0 23.79 12.066 27 28.712l17.987 82.04c6.038 31.395 33.7 54.17 65.767 54.17 36.908 0 66.963-29.932 66.963-66.75v-245.03c-8.03-101.107-87.95-176.25-176.653-173.746C94.19 15.975 14.89 97.308 13.21 187.01z" fill="none" stroke="#4e4e4e" stroke-width="26"/><path d="M237.848 138.406c0 15.392-12.542 27.87-28.01 27.87-15.472 0-28.013-12.478-28.013-27.87 0-15.393 12.54-27.872 28.012-27.872 15.47 0 28.01 12.48 28.01 27.872zM544.123 140.52v88.7c16.284-8.5 35.015-13.4 54.87-13.4 63.983 0 115.92 50.23 115.92 112.1s-52.106 112.1-116.09 112.1c-19.854 0-38.416-4.9-54.86-13.4V440h-59.088c-1.97-101.46 0-197.04 0-299.5zm56.66 129.63c-31.264 0-56.66 24.55-56.66 55.15 0 30.44 25.396 55.16 56.66 55.16 31.256 0 56.652-24.55 56.652-55 0-30.44-25.396-55.15-56.65-55.15zm164.762 62.35c0 68.74 52.096 107.53 101.266 107.53 48.845 0 100.94-36 100.94-107.53V219.57l-61.536.66-.815 112.27c-.33 32.74-19.866 47.8-40.388 47.14-19.526-.66-34.18-15.22-34.835-47.14l-2.11-112.93h-62.19zm253.495-112.6h59.256l.657 220.13h-59.437zm109.89-78.9h59.267v299.52h-59.258zm277.426-.48v88.7c-16.284-8.5-35.015-13.4-54.87-13.4-64.142 0-116.088 50.23-116.088 112.1s52.105 112.1 115.928 112.1c19.537 0 38.26-4.9 54.712-13.4V440h59.088c1.632-101.46 0-197.04 0-299.5zm-56.66 129.63c31.264 0 56.66 24.55 56.66 55.15 0 30.44-25.396 55.16-56.66 55.16-31.256 0-56.652-24.55-56.652-55 0-30.44 25.406-55.15 56.66-55.15zm239.974 133.87c0 19.64-15.787 35.68-35.484 35.68-19.536 0-35.492-16.04-35.492-35.68s15.787-35.67 35.493-35.67c19.537 0 35.492 15.87 35.492 35.67zm51.776-184.12h59.268v220.46h-59.268zm226.634-4.1c-63.99 0-115.59 50.25-115.59 112.12 0 61.87 51.6 112.1 115.59 112.1 63.984 0 115.92-50.23 115.92-112.1s-52.095-112.1-115.91-112.1zm0 56.8c31.257 0 56.653 24.55 56.653 55.16 0 30.27-25.396 55-56.652 55-31.263 0-56.66-24.56-56.66-55.17 0-30.6 25.397-55.33 56.66-55.33z" fill="#4e4e4e"/></svg><view id="outline-white-mascot" viewBox="1024 2048 512 512"/><svg width="512" height="512" viewBox="0 0 512 512" x="1024" y="2048"><path d="M79.21 433.534c0 35.977 29.373 65.257 65.466 65.257 30.843 0 57.797-21.85 64.08-51.943l19.333-84.833c3.426-16.32 10.284-28.142 26.984-28.142 16.972 0 23.79 12.066 27 28.712l17.987 82.04c6.038 31.395 33.7 54.17 65.767 54.17 36.908 0 66.963-29.932 66.963-66.75v-245.03c-8.03-101.107-87.95-176.25-176.653-173.746C160.19 15.975 80.89 97.308 79.21 187.01z" fill="none"/><path d="M350.195 176.522c0 53.175-43.326 96.28-96.768 96.28-53.444 0-96.768-43.108-96.768-96.28 0-53.175 43.322-96.284 96.766-96.284s96.768 43.11 96.768 96.284zM79.21 433.534c0 35.977 29.373 65.257 65.466 65.257 30.843 0 57.797-21.85 64.08-51.943l19.333-84.833c3.426-16.32 10.284-28.142 26.984-28.142 16.972 0 23.79 12.066 27 28.712l17.987 82.04c6.038 31.395 33.7 54.17 65.767 54.17 36.908 0 66.963-29.932 66.963-66.75v-245.03c-8.03-101.107-87.95-176.25-176.653-173.746C160.19 15.975 80.89 97.308 79.21 187.01z" fill="none" stroke="#fff" stroke-width="26"/><path d="M303.848 138.406c0 15.392-12.542 27.87-28.01 27.87-15.472 0-28.013-12.478-28.013-27.87 0-15.393 12.54-27.872 28.012-27.872 15.47 0 28.01 12.48 28.01 27.872z" fill="#fff"/></svg><view id="outline-white-text" viewBox="0 1536 1985 512"/><svg width="1985" height="512" viewBox="0 0 1985 512" y="1536"><path d="M13.21 433.534c0 35.977 29.373 65.257 65.466 65.257 30.843 0 57.797-21.85 64.08-51.943l19.333-84.833c3.426-16.32 10.284-28.142 26.984-28.142 16.972 0 23.79 12.066 27 28.712l17.987 82.04c6.038 31.395 33.7 54.17 65.767 54.17 36.908 0 66.963-29.932 66.963-66.75v-245.03c-8.03-101.107-87.95-176.25-176.653-173.746C94.19 15.975 14.89 97.308 13.21 187.01z" fill="none"/><path d="M284.195 176.522c0 53.175-43.326 96.28-96.768 96.28-53.444 0-96.768-43.108-96.768-96.28 0-53.175 43.322-96.284 96.766-96.284s96.768 43.11 96.768 96.284zM13.21 433.534c0 35.977 29.373 65.257 65.466 65.257 30.843 0 57.797-21.85 64.08-51.943l19.333-84.833c3.426-16.32 10.284-28.142 26.984-28.142 16.972 0 23.79 12.066 27 28.712l17.987 82.04c6.038 31.395 33.7 54.17 65.767 54.17 36.908 0 66.963-29.932 66.963-66.75v-245.03c-8.03-101.107-87.95-176.25-176.653-173.746C94.19 15.975 14.89 97.308 13.21 187.01z" fill="none" stroke="#fff" stroke-width="26"/><path d="M237.848 138.406c0 15.392-12.542 27.87-28.01 27.87-15.472 0-28.013-12.478-28.013-27.87 0-15.393 12.54-27.872 28.012-27.872 15.47 0 28.01 12.48 28.01 27.872zM544.123 140.52v88.7c16.284-8.5 35.015-13.4 54.87-13.4 63.983 0 115.92 50.23 115.92 112.1s-52.106 112.1-116.09 112.1c-19.854 0-38.416-4.9-54.86-13.4V440h-59.088c-1.97-101.46 0-197.04 0-299.5zm56.66 129.63c-31.264 0-56.66 24.55-56.66 55.15 0 30.44 25.396 55.16 56.66 55.16 31.256 0 56.652-24.55 56.652-55 0-30.44-25.396-55.15-56.65-55.15zm164.762 62.35c0 68.74 52.096 107.53 101.266 107.53 48.845 0 100.94-36 100.94-107.53V219.57l-61.536.66-.815 112.27c-.33 32.74-19.866 47.8-40.388 47.14-19.526-.66-34.18-15.22-34.835-47.14l-2.11-112.93h-62.19zm253.495-112.6h59.256l.657 220.13h-59.437zm109.89-78.9h59.267v299.52h-59.258zm277.426-.48v88.7c-16.284-8.5-35.015-13.4-54.87-13.4-64.142 0-116.088 50.23-116.088 112.1s52.105 112.1 115.928 112.1c19.537 0 38.26-4.9 54.712-13.4V440h59.088c1.632-101.46 0-197.04 0-299.5zm-56.66 129.63c31.264 0 56.66 24.55 56.66 55.15 0 30.44-25.396 55.16-56.66 55.16-31.256 0-56.652-24.55-56.652-55 0-30.44 25.406-55.15 56.66-55.15zm239.974 133.87c0 19.64-15.787 35.68-35.484 35.68-19.536 0-35.492-16.04-35.492-35.68s15.787-35.67 35.493-35.67c19.537 0 35.492 15.87 35.492 35.67zm51.776-184.12h59.268v220.46h-59.268zm226.634-4.1c-63.99 0-115.59 50.25-115.59 112.12 0 61.87 51.6 112.1 115.59 112.1 63.984 0 115.92-50.23 115.92-112.1s-52.095-112.1-115.91-112.1zm0 56.8c31.257 0 56.653 24.55 56.653 55.16 0 30.27-25.396 55-56.652 55-31.263 0-56.66-24.56-56.66-55.17 0-30.6 25.397-55.33 56.66-55.33z" fill="#fff"/></svg><view id="solid-mascot" viewBox="2048 2048 512 512"/><svg width="512" height="512" viewBox="0 0 512 512" x="2048" y="2048"><path d="M79.21 433.534c0 35.977 29.373 65.257 65.466 65.257 30.843 0 57.797-21.85 64.08-51.943l19.333-84.833c3.426-16.32 10.284-28.142 26.984-28.142 16.972 0 23.79 12.066 27 28.712l17.987 82.04c6.038 31.395 33.7 54.17 65.767 54.17 36.908 0 66.963-29.932 66.963-66.75v-245.03c-8.03-101.107-87.95-176.25-176.653-173.746C160.19 15.975 80.89 97.308 79.21 187.01z" fill="#fff"/><path d="M350.195 176.522c0 53.175-43.326 96.28-96.768 96.28-53.444 0-96.768-43.108-96.768-96.28 0-53.175 43.322-96.284 96.766-96.284s96.768 43.11 96.768 96.284zM79.21 433.534c0 35.977 29.373 65.257 65.466 65.257 30.843 0 57.797-21.85 64.08-51.943l19.333-84.833c3.426-16.32 10.284-28.142 26.984-28.142 16.972 0 23.79 12.066 27 28.712l17.987 82.04c6.038 31.395 33.7 54.17 65.767 54.17 36.908 0 66.963-29.932 66.963-66.75v-245.03c-8.03-101.107-87.95-176.25-176.653-173.746C160.19 15.975 80.89 97.308 79.21 187.01z" fill="#4e4e4e" stroke="#4e4e4e" stroke-width="26"/><path d="M303.848 138.406c0 15.392-12.542 27.87-28.01 27.87-15.472 0-28.013-12.478-28.013-27.87 0-15.393 12.54-27.872 28.012-27.872 15.47 0 28.01 12.48 28.01 27.872z" fill="#4e4e4e"/></svg><view id="solid-text" viewBox="1985 1536 1985 512"/><svg width="1985" height="512" viewBox="0 0 1985 512" x="1985" y="1536"><path d="M13.21 433.534c0 35.977 29.373 65.257 65.466 65.257 30.843 0 57.797-21.85 64.08-51.943l19.333-84.833c3.426-16.32 10.284-28.142 26.984-28.142 16.972 0 23.79 12.066 27 28.712l17.987 82.04c6.038 31.395 33.7 54.17 65.767 54.17 36.908 0 66.963-29.932 66.963-66.75v-245.03c-8.03-101.107-87.95-176.25-176.653-173.746C94.19 15.975 14.89 97.308 13.21 187.01z" fill="#fff"/><path d="M284.195 176.522c0 53.175-43.326 96.28-96.768 96.28-53.444 0-96.768-43.108-96.768-96.28 0-53.175 43.322-96.284 96.766-96.284s96.768 43.11 96.768 96.284zM13.21 433.534c0 35.977 29.373 65.257 65.466 65.257 30.843 0 57.797-21.85 64.08-51.943l19.333-84.833c3.426-16.32 10.284-28.142 26.984-28.142 16.972 0 23.79 12.066 27 28.712l17.987 82.04c6.038 31.395 33.7 54.17 65.767 54.17 36.908 0 66.963-29.932 66.963-66.75v-245.03c-8.03-101.107-87.95-176.25-176.653-173.746C94.19 15.975 14.89 97.308 13.21 187.01z" fill="#4e4e4e" stroke="#4e4e4e" stroke-width="26"/><path d="M237.848 138.406c0 15.392-12.542 27.87-28.01 27.87-15.472 0-28.013-12.478-28.013-27.87 0-15.393 12.54-27.872 28.012-27.872 15.47 0 28.01 12.48 28.01 27.872zM544.123 140.52v88.7c16.284-8.5 35.015-13.4 54.87-13.4 63.983 0 115.92 50.23 115.92 112.1s-52.106 112.1-116.09 112.1c-19.854 0-38.416-4.9-54.86-13.4V440h-59.088c-1.97-101.46 0-197.04 0-299.5zm56.66 129.63c-31.264 0-56.66 24.55-56.66 55.15 0 30.44 25.396 55.16 56.66 55.16 31.256 0 56.652-24.55 56.652-55 0-30.44-25.396-55.15-56.65-55.15zm164.762 62.35c0 68.74 52.096 107.53 101.266 107.53 48.845 0 100.94-36 100.94-107.53V219.57l-61.536.66-.815 112.27c-.33 32.74-19.866 47.8-40.388 47.14-19.526-.66-34.18-15.22-34.835-47.14l-2.11-112.93h-62.19zm253.495-112.6h59.256l.657 220.13h-59.437zm109.89-78.9h59.267v299.52h-59.258zm277.426-.48v88.7c-16.284-8.5-35.015-13.4-54.87-13.4-64.142 0-116.088 50.23-116.088 112.1s52.105 112.1 115.928 112.1c19.537 0 38.26-4.9 54.712-13.4V440h59.088c1.632-101.46 0-197.04 0-299.5zm-56.66 129.63c31.264 0 56.66 24.55 56.66 55.15 0 30.44-25.396 55.16-56.66 55.16-31.256 0-56.652-24.55-56.652-55 0-30.44 25.406-55.15 56.66-55.15zm239.974 133.87c0 19.64-15.787 35.68-35.484 35.68-19.536 0-35.492-16.04-35.492-35.68s15.787-35.67 35.493-35.67c19.537 0 35.492 15.87 35.492 35.67zm51.776-184.12h59.268v220.46h-59.268zm226.634-4.1c-63.99 0-115.59 50.25-115.59 112.12 0 61.87 51.6 112.1 115.59 112.1 63.984 0 115.92-50.23 115.92-112.1s-52.095-112.1-115.91-112.1zm0 56.8c31.257 0 56.653 24.55 56.653 55.16 0 30.27-25.396 55-56.652 55-31.263 0-56.66-24.56-56.66-55.17 0-30.6 25.397-55.33 56.66-55.33z" fill="#4e4e4e"/></svg><view id="solid-white-mascot" viewBox="3072 2048 512 512"/><svg width="512" height="512" viewBox="0 0 512 512" x="3072" y="2048"><path d="M79.21 433.534c0 35.977 29.373 65.257 65.466 65.257 30.843 0 57.797-21.85 64.08-51.943l19.333-84.833c3.426-16.32 10.284-28.142 26.984-28.142 16.972 0 23.79 12.066 27 28.712l17.987 82.04c6.038 31.395 33.7 54.17 65.767 54.17 36.908 0 66.963-29.932 66.963-66.75v-245.03c-8.03-101.107-87.95-176.25-176.653-173.746C160.19 15.975 80.89 97.308 79.21 187.01z" fill="none"/><path d="M350.195 176.522c0 53.175-43.326 96.28-96.768 96.28-53.444 0-96.768-43.108-96.768-96.28 0-53.175 43.322-96.284 96.766-96.284s96.768 43.11 96.768 96.284zM79.21 433.534c0 35.977 29.373 65.257 65.466 65.257 30.843 0 57.797-21.85 64.08-51.943l19.333-84.833c3.426-16.32 10.284-28.142 26.984-28.142 16.972 0 23.79 12.066 27 28.712l17.987 82.04c6.038 31.395 33.7 54.17 65.767 54.17 36.908 0 66.963-29.932 66.963-66.75v-245.03c-8.03-101.107-87.95-176.25-176.653-173.746C160.19 15.975 80.89 97.308 79.21 187.01z" fill="#fff" stroke="#fff" stroke-width="26"/><path d="M303.848 138.406c0 15.392-12.542 27.87-28.01 27.87-15.472 0-28.013-12.478-28.013-27.87 0-15.393 12.54-27.872 28.012-27.872 15.47 0 28.01 12.48 28.01 27.872z" fill="#fff"/></svg><view id="solid-white-text" viewBox="0 0 1985 512"/><svg width="1985" height="512" viewBox="0 0 1985 512"><path d="M13.21 433.534c0 35.977 29.373 65.257 65.466 65.257 30.843 0 57.797-21.85 64.08-51.943l19.333-84.833c3.426-16.32 10.284-28.142 26.984-28.142 16.972 0 23.79 12.066 27 28.712l17.987 82.04c6.038 31.395 33.7 54.17 65.767 54.17 36.908 0 66.963-29.932 66.963-66.75v-245.03c-8.03-101.107-87.95-176.25-176.653-173.746C94.19 15.975 14.89 97.308 13.21 187.01z" fill="none"/><path d="M284.195 176.522c0 53.175-43.326 96.28-96.768 96.28-53.444 0-96.768-43.108-96.768-96.28 0-53.175 43.322-96.284 96.766-96.284s96.768 43.11 96.768 96.284zM13.21 433.534c0 35.977 29.373 65.257 65.466 65.257 30.843 0 57.797-21.85 64.08-51.943l19.333-84.833c3.426-16.32 10.284-28.142 26.984-28.142 16.972 0 23.79 12.066 27 28.712l17.987 82.04c6.038 31.395 33.7 54.17 65.767 54.17 36.908 0 66.963-29.932 66.963-66.75v-245.03c-8.03-101.107-87.95-176.25-176.653-173.746C94.19 15.975 14.89 97.308 13.21 187.01z" fill="#fff" stroke="#fff" stroke-width="26"/><path d="M237.848 138.406c0 15.392-12.542 27.87-28.01 27.87-15.472 0-28.013-12.478-28.013-27.87 0-15.393 12.54-27.872 28.012-27.872 15.47 0 28.01 12.48 28.01 27.872zM544.123 140.52v88.7c16.284-8.5 35.015-13.4 54.87-13.4 63.983 0 115.92 50.23 115.92 112.1s-52.106 112.1-116.09 112.1c-19.854 0-38.416-4.9-54.86-13.4V440h-59.088c-1.97-101.46 0-197.04 0-299.5zm56.66 129.63c-31.264 0-56.66 24.55-56.66 55.15 0 30.44 25.396 55.16 56.66 55.16 31.256 0 56.652-24.55 56.652-55 0-30.44-25.396-55.15-56.65-55.15zm164.762 62.35c0 68.74 52.096 107.53 101.266 107.53 48.845 0 100.94-36 100.94-107.53V219.57l-61.536.66-.815 112.27c-.33 32.74-19.866 47.8-40.388 47.14-19.526-.66-34.18-15.22-34.835-47.14l-2.11-112.93h-62.19zm253.495-112.6h59.256l.657 220.13h-59.437zm109.89-78.9h59.267v299.52h-59.258zm277.426-.48v88.7c-16.284-8.5-35.015-13.4-54.87-13.4-64.142 0-116.088 50.23-116.088 112.1s52.105 112.1 115.928 112.1c19.537 0 38.26-4.9 54.712-13.4V440h59.088c1.632-101.46 0-197.04 0-299.5zm-56.66 129.63c31.264 0 56.66 24.55 56.66 55.15 0 30.44-25.396 55.16-56.66 55.16-31.256 0-56.652-24.55-56.652-55 0-30.44 25.406-55.15 56.66-55.15zm239.974 133.87c0 19.64-15.787 35.68-35.484 35.68-19.536 0-35.492-16.04-35.492-35.68s15.787-35.67 35.493-35.67c19.537 0 35.492 15.87 35.492 35.67zm51.776-184.12h59.268v220.46h-59.268zm226.634-4.1c-63.99 0-115.59 50.25-115.59 112.12 0 61.87 51.6 112.1 115.59 112.1 63.984 0 115.92-50.23 115.92-112.1s-52.095-112.1-115.91-112.1zm0 56.8c31.257 0 56.653 24.55 56.653 55.16 0 30.27-25.396 55-56.652 55-31.263 0-56.66-24.56-56.66-55.17 0-30.6 25.397-55.33 56.66-55.33z" fill="#fff"/></svg></svg>